<svg width="40" height="447" viewBox="0 0 40 447" fill="none" xmlns="http://www.w3.org/2000/svg">
<path d="M6.42051 7.18893C6.42051 8.12746 5.68848 8.8771 4.79901 8.8771C3.90955 8.8771 3.17752 8.12746 3.17752 7.18893C3.17752 6.25041 3.90955 5.50077 4.79901 5.50077C5.68848 5.50077 6.42051 6.25041 6.42051 7.18893Z" stroke="#C3E2FF" stroke-width="0.356999"/>
<path d="M6.42051 7.18893C6.42051 8.12746 5.68848 8.8771 4.79901 8.8771C3.90955 8.8771 3.17752 8.12746 3.17752 7.18893C3.17752 6.25041 3.90955 5.50077 4.79901 5.50077C5.68848 5.50077 6.42051 6.25041 6.42051 7.18893Z" stroke="#C3E2FF" stroke-width="0.356999"/>
<path d="M17.2188 43.2778C17.2188 44.2163 16.4868 44.966 15.5974 44.966C14.7079 44.966 13.9759 44.2163 13.9759 43.2778C13.9759 42.3393 14.7079 41.5896 15.5974 41.5896C16.4868 41.5896 17.2188 42.3393 17.2188 43.2778Z" stroke="#C3E2FF" stroke-width="0.356999"/>
<path d="M25.6197 69.4111C25.6197 70.3496 24.8877 71.0993 23.9982 71.0993C23.1088 71.0993 22.3767 70.3496 22.3767 69.4111C22.3767 68.4726 23.1088 67.7229 23.9982 67.7229C24.8877 67.7229 25.6197 68.4726 25.6197 69.4111Z" stroke="#C3E2FF" stroke-width="0.356999"/>
<path d="M39.6241 54.0009C39.6241 54.9395 38.8921 55.6891 38.0026 55.6891C37.1132 55.6891 36.3811 54.9395 36.3811 54.0009C36.3811 53.0624 37.1132 52.3128 38.0026 52.3128C38.8921 52.3128 39.6241 53.0624 39.6241 54.0009Z" stroke="#C3E2FF" stroke-width="0.356999"/>
<path d="M4.01987 63.1889C4.01987 64.1275 3.28784 64.8771 2.39838 64.8771C1.50892 64.8771 0.776888 64.1275 0.776888 63.1889C0.776888 62.2504 1.50892 61.5008 2.39838 61.5008C3.28784 61.5008 4.01987 62.2504 4.01987 63.1889Z" stroke="#C3E2FF" stroke-width="0.356999"/>
<path d="M12.4195 95.5444C12.4195 96.4829 11.6875 97.2326 10.798 97.2326C9.90858 97.2326 9.17655 96.4829 9.17655 95.5444C9.17655 94.6059 9.90858 93.8562 10.798 93.8562C11.6875 93.8562 12.4195 94.6059 12.4195 95.5444Z" stroke="#C3E2FF" stroke-width="0.356999"/>
<path d="M4.01987 211.767C4.01987 212.706 3.28784 213.455 2.39838 213.455C1.50892 213.455 0.776888 212.706 0.776888 211.767C0.776888 210.829 1.50892 210.079 2.39838 210.079C3.28784 210.079 4.01987 210.829 4.01987 211.767Z" stroke="#C3E2FF" stroke-width="0.356999"/>
<path d="M13.6207 337.989C13.6207 338.928 12.8887 339.677 11.9992 339.677C11.1097 339.677 10.3777 338.928 10.3777 337.989C10.3777 337.051 11.1097 336.301 11.9992 336.301C12.8887 336.301 13.6207 337.051 13.6207 337.989Z" stroke="#C3E2FF" stroke-width="0.356999"/>
<path d="M23.2198 115.456C23.2198 116.394 22.4878 117.144 21.5983 117.144C20.7089 117.144 19.9768 116.394 19.9768 115.456C19.9768 114.517 20.7089 113.767 21.5983 113.767C22.4878 113.767 23.2198 114.517 23.2198 115.456Z" stroke="#C3E2FF" stroke-width="0.356999"/>
<path d="M14.8199 231.678C14.8199 232.617 14.0879 233.366 13.1984 233.366C12.309 233.366 11.5769 232.617 11.5769 231.678C11.5769 230.74 12.309 229.99 13.1984 229.99C14.0879 229.99 14.8199 230.74 14.8199 231.678Z" stroke="#C3E2FF" stroke-width="0.356999"/>
<path d="M17.2188 356.967C17.2188 357.905 16.4868 358.655 15.5974 358.655C14.7079 358.655 13.9759 357.905 13.9759 356.967C13.9759 356.028 14.7079 355.279 15.5974 355.279C16.4868 355.279 17.2188 356.028 17.2188 356.967Z" stroke="#C3E2FF" stroke-width="0.356999"/>
<path d="M35.2203 99.2778C35.2203 100.216 34.4883 100.966 33.5988 100.966C32.7094 100.966 31.9773 100.216 31.9773 99.2778C31.9773 98.3393 32.7094 97.5896 33.5988 97.5896C34.4883 97.5896 35.2203 98.3393 35.2203 99.2778Z" stroke="#C3E2FF" stroke-width="0.356999"/>
<path d="M26.8189 215.5C26.8189 216.439 26.0869 217.189 25.1975 217.189C24.308 217.189 23.576 216.439 23.576 215.5C23.576 214.562 24.308 213.812 25.1975 213.812C26.0869 213.812 26.8189 214.562 26.8189 215.5Z" stroke="#C3E2FF" stroke-width="0.356999"/>
<path d="M36.42 341.723C36.42 342.661 35.688 343.411 34.7985 343.411C33.9091 343.411 33.177 342.661 33.177 341.723C33.177 340.784 33.9091 340.034 34.7985 340.034C35.688 340.034 36.42 340.784 36.42 341.723Z" stroke="#C3E2FF" stroke-width="0.356999"/>
<path d="M38.0978 131.748C38.0978 132.686 37.3657 133.436 36.4763 133.436C35.5868 133.436 34.8548 132.686 34.8548 131.748C34.8548 130.809 35.5868 130.059 36.4763 130.059C37.3657 130.059 38.0978 130.809 38.0978 131.748Z" stroke="#C3E2FF" stroke-width="0.356999"/>
<path d="M29.6974 247.97C29.6974 248.909 28.9653 249.658 28.0759 249.658C27.1864 249.658 26.4544 248.909 26.4544 247.97C26.4544 247.032 27.1864 246.282 28.0759 246.282C28.9653 246.282 29.6974 247.032 29.6974 247.97Z" stroke="#C3E2FF" stroke-width="0.356999"/>
<path d="M27.297 373.037C27.297 373.975 26.5649 374.725 25.6755 374.725C24.786 374.725 24.054 373.975 24.054 373.037C24.054 372.098 24.786 371.348 25.6755 371.348C26.5649 371.348 27.297 372.098 27.297 373.037Z" stroke="#C3E2FF" stroke-width="0.356999"/>
<path d="M7.61871 192.567C7.61871 193.505 6.8873 194.254 5.99872 194.254C5.11014 194.254 4.37873 193.505 4.37873 192.567C4.37873 191.629 5.11014 190.88 5.99872 190.88C6.8873 190.88 7.61871 191.629 7.61871 192.567Z" stroke="#C3E2FF" stroke-width="0.359999"/>
<path d="M4.01837 309.011C4.01837 309.949 3.28696 310.698 2.39838 310.698C1.5098 310.698 0.778388 309.949 0.778388 309.011C0.778388 308.073 1.5098 307.325 2.39838 307.325C3.28696 307.325 4.01837 308.073 4.01837 309.011Z" stroke="#C3E2FF" stroke-width="0.359999"/>
<path d="M4.01837 434.789C4.01837 435.727 3.28696 436.476 2.39838 436.476C1.5098 436.476 0.778388 435.727 0.778388 434.789C0.778388 433.851 1.5098 433.102 2.39838 433.102C3.28696 433.102 4.01837 433.851 4.01837 434.789Z" stroke="#C3E2FF" stroke-width="0.359999"/>
<path d="M35.2203 160.256C35.2203 161.194 34.4883 161.944 33.5988 161.944C32.7094 161.944 31.9773 161.194 31.9773 160.256C31.9773 159.317 32.7094 158.568 33.5988 158.568C34.4883 158.568 35.2203 159.317 35.2203 160.256Z" stroke="#C3E2FF" stroke-width="0.356999"/>
<path d="M31.6192 276.7C31.6192 277.639 30.8872 278.388 29.9977 278.388C29.1083 278.388 28.3763 277.639 28.3763 276.7C28.3763 275.762 29.1083 275.012 29.9977 275.012C30.8872 275.012 31.6192 275.762 31.6192 276.7Z" stroke="#C3E2FF" stroke-width="0.356999"/>
<path d="M31.6192 402.478C31.6192 403.417 30.8872 404.167 29.9977 404.167C29.1083 404.167 28.3763 403.417 28.3763 402.478C28.3763 401.54 29.1083 400.79 29.9977 400.79C30.8872 400.79 31.6192 401.54 31.6192 402.478Z" stroke="#C3E2FF" stroke-width="0.356999"/>
<path d="M28.0199 188.878C28.0199 189.816 27.2878 190.566 26.3984 190.566C25.5089 190.566 24.7769 189.816 24.7769 188.878C24.7769 187.939 25.5089 187.19 26.3984 187.19C27.2878 187.19 28.0199 187.939 28.0199 188.878Z" stroke="#C3E2FF" stroke-width="0.356999"/>
<path d="M24.419 305.322C24.419 306.261 23.687 307.01 22.7975 307.01C21.9081 307.01 21.1761 306.261 21.1761 305.322C21.1761 304.384 21.9081 303.634 22.7975 303.634C23.687 303.634 24.419 304.384 24.419 305.322Z" stroke="#C3E2FF" stroke-width="0.356999"/>
<path d="M24.419 431.101C24.419 432.039 23.687 432.789 22.7975 432.789C21.9081 432.789 21.1761 432.039 21.1761 431.101C21.1761 430.162 21.9081 429.412 22.7975 429.412C23.687 429.412 24.419 430.162 24.419 431.101Z" stroke="#C3E2FF" stroke-width="0.356999"/>
<path d="M25.6197 202.167C25.6197 203.105 24.8877 203.855 23.9982 203.855C23.1088 203.855 22.3767 203.105 22.3767 202.167C22.3767 201.228 23.1088 200.479 23.9982 200.479C24.8877 200.479 25.6197 201.228 25.6197 202.167Z" stroke="#C3E2FF" stroke-width="0.356999"/>
<path d="M22.0191 318.611C22.0191 319.55 21.2871 320.299 20.3976 320.299C19.5082 320.299 18.7762 319.55 18.7762 318.611C18.7762 317.673 19.5082 316.923 20.3976 316.923C21.2871 316.923 22.0191 317.673 22.0191 318.611Z" stroke="#C3E2FF" stroke-width="0.356999"/>
<path d="M22.0191 444.389C22.0191 445.328 21.2871 446.077 20.3976 446.077C19.5082 446.077 18.7762 445.328 18.7762 444.389C18.7762 443.451 19.5082 442.701 20.3976 442.701C21.2871 442.701 22.0191 443.451 22.0191 444.389Z" stroke="#C3E2FF" stroke-width="0.356999"/>
<path d="M10.0201 156.522C10.0201 157.461 9.28808 158.211 8.39862 158.211C7.50916 158.211 6.77713 157.461 6.77713 156.522C6.77713 155.584 7.50916 154.834 8.39862 154.834C9.28808 154.834 10.0201 155.584 10.0201 156.522Z" stroke="#C3E2FF" stroke-width="0.356999"/>
<path d="M6.42051 272.967C6.42051 273.905 5.68848 274.655 4.79901 274.655C3.90955 274.655 3.17752 273.905 3.17752 272.967C3.17752 272.028 3.90955 271.279 4.79901 271.279C5.68848 271.279 6.42051 272.028 6.42051 272.967Z" stroke="#C3E2FF" stroke-width="0.356999"/>
<path d="M6.42051 398.745C6.42051 399.683 5.68848 400.433 4.79901 400.433C3.90955 400.433 3.17752 399.683 3.17752 398.745C3.17752 397.806 3.90955 397.056 4.79901 397.056C5.68848 397.056 6.42051 397.806 6.42051 398.745Z" stroke="#C3E2FF" stroke-width="0.356999"/>
<path d="M32.8209 23.3667C32.8209 24.3052 32.0889 25.0548 31.1994 25.0548C30.3099 25.0548 29.5779 24.3052 29.5779 23.3667C29.5779 22.4281 30.3099 21.6785 31.1994 21.6785C32.0889 21.6785 32.8209 22.4281 32.8209 23.3667Z" stroke="#C3E2FF" stroke-width="0.356999"/>
<path d="M31.6192 2.21139C31.6192 3.14992 30.8872 3.89956 29.9977 3.89956C29.1083 3.89956 28.3763 3.14992 28.3763 2.21139C28.3763 1.27287 29.1083 0.523226 29.9977 0.523226C30.8872 0.523226 31.6192 1.27287 31.6192 2.21139Z" stroke="#C3E2FF" stroke-width="0.356999"/>
</svg>
